<?xml version="1.0"?>
<svg xmlns="http://www.w3.org/2000/svg" viewBox="0 0 64 64" width="512" height="512"><path d="m46 37.21875v20.40625c0 2.4162 3.58173 4.375 8 4.375s8-1.9588 8-4.375v-20.40625z" fill="#f98c32"/><g fill="#fed966"><path d="m38 8a2 2 0 0 0 -2-2 2 2 0 0 0 0-4h-33v12h12.34875a5.94933 5.94933 0 0 0 .78461 5.5 6.01055 6.01055 0 0 1 3.29328-2.28424l-.00391.00079a2 2 0 1 1 3.15454 0l-.00378-.00079a6.01027 6.01027 0 0 1 3.29315 2.28424 5.94933 5.94933 0 0 0 .78461-5.5h9.34875a2 2 0 0 0 0-4 2 2 0 0 0 2-2z"/><path d="m21.83032 17.06213-.03-.00555z"/><path d="m20.16956 17.06213.03009-.00555z"/></g><circle cx="21" cy="23" fill="#f59536" r="6"/><path d="m21 27a2.75409 2.75409 0 0 1 -3-2.5h2c0 .17676.37988.5 1 .5s1-.32324 1-.5c0-.18652-.27539-.30469-1.22852-.52734-1.03662-.24219-2.77148-.64844-2.77148-2.47266a2.75409 2.75409 0 0 1 3-2.5 2.75409 2.75409 0 0 1 3 2.5h-2c0-.17676-.37988-.5-1-.5s-1 .32324-1 .5c0 .18457.2749.30273 1.22656.52441 1.03711.24317 2.77344.64844 2.77344 2.47559a2.75409 2.75409 0 0 1 -3 2.5z" fill="#7c7c7c"/><path d="m54 15h-3v-3h-2v3h-3v2h3v3h2v-3h3z" fill="#f4aa06"/><path d="m61 6h-3v-3h-2v3h-3v2h3v3h2v-3h3z" fill="#ffd700"/><path d="m62 23h-3v-3h-2v3h-3v2h3v3h2v-3h3z" fill="#ffd700"/><path d="m15.611 13h-12.611v1h12.35868a6.287 6.287 0 0 1 .25232-1z" fill="#f4c33b"/><path d="m35.9522 13h-9.5722a6.01937 6.01937 0 0 1 .26629 1h9.30591a2.02435 2.02435 0 0 0 2.0478-2 1.93984 1.93984 0 0 0 -.07243-.5 2.03462 2.03462 0 0 1 -1.97537 1.5z" fill="#f4c33b"/><path d="m40.31024 43.03174-19.57336 3.25818-4.73688-3.25818h-9v9.96826h4l9.19452 4.66138a3.56359 3.56359 0 0 0 3.47913-.251l17.41162-11.42069a1.59553 1.59553 0 0 0 -.77503-2.95795z" fill="#d6d6e5"/><path d="m41.08527 44.95793-17.41161 11.42067a3.56375 3.56375 0 0 1 -3.47913.251l-9.19453-4.31201h-4v.68241h4l9.19453 4.66141a3.56375 3.56375 0 0 0 3.47913-.251l17.41161-11.42072a1.57123 1.57123 0 0 0 .67663-1.86332 1.53769 1.53769 0 0 1 -.67663.83156z" fill="#b9b9c6"/><path d="m2 42h6v13h-6z" fill="#92b1f9"/><path d="m22.58468 47.53632-3.80451-2.53632 3.4206 2.98779a1.65824 1.65824 0 0 1 .39776 2.35443 1.60714 1.60714 0 0 1 -2.19683.38153l-4.62153-2.77191v1.04816l4.03528 2.69019a2.49616 2.49616 0 0 0 2.76923-4.15387z" fill="#bcbccc"/><ellipse cx="54" cy="37" fill="#ff9d5a" rx="8" ry="4"/><path d="m36 5h-10v1h10a1.97566 1.97566 0 0 0 1.92926-2.5 1.99528 1.99528 0 0 1 -1.92926 1.5z" fill="#f4c33b"/><path d="m36 9h-10v1h10a1.97566 1.97566 0 0 0 1.92926-2.5 1.99528 1.99528 0 0 1 -1.92926 1.5z" fill="#f4c33b"/><path d="m54 53.5625c-4.41827 0-8-1.609-8-3.59375v3.65625c0 2.4162 3.58173 4.375 8 4.375s8-1.9588 8-4.375v-3.65625c0 1.98474-3.58173 3.59375-8 3.59375z" fill="#ffd700"/><path d="m54 45.5625c-4.41827 0-8-1.609-8-3.59375v3.65625c0 2.4162 3.58173 4.375 8 4.375s8-1.9588 8-4.375v-3.65625c0 1.98474-3.58173 3.59375-8 3.59375z" fill="#ffd700"/></svg>
