<svg id="Layer_1" enable-background="new 0 0 512 512" height="512" viewBox="0 0 512 512" width="512" xmlns="http://www.w3.org/2000/svg"><g><path d="m156 248h-24c-22.056 0-40 17.944-40 40v80h-26.343c-3.124 0-5.657 2.533-5.657 5.657 0 1.5.596 2.939 1.657 4l32.686 32.686c3.622 3.622 8.535 5.657 13.657 5.657s10.035-2.035 13.657-5.657l32.686-32.686c1.061-1.061 1.657-2.5 1.657-4 0-3.124-2.533-5.657-5.657-5.657h-26.343v-80c0-4.411 3.589-8 8-8h24c8.836 0 16-7.163 16-16s-7.164-16-16-16z" fill="#5f78be"/><path d="m428 80h-80c-8.837 0-16 7.164-16 16s7.163 16 16 16h80c4.411 0 8 3.589 8 8v120c0 4.411-3.589 8-8 8h-24v-26.343c0-3.124-2.533-5.657-5.657-5.657-1.5 0-2.939.596-4 1.657l-32.686 32.686c-3.622 3.622-5.657 8.535-5.657 13.657s2.035 10.035 5.657 13.657l32.686 32.686c1.061 1.061 2.5 1.657 4 1.657 3.124 0 5.657-2.533 5.657-5.657v-26.343h24c22.056 0 40-17.944 40-40v-120c0-22.056-17.944-40-40-40z" fill="#5f78be"/><g><g><g><circle cx="252" cy="96" fill="#faa51e" r="88"/></g><g><path d="m252 16c44.112 0 80 35.888 80 80s-35.888 80-80 80-80-35.888-80-80 35.888-80 80-80m0-16c-53.019 0-96 42.981-96 96s42.981 96 96 96 96-42.981 96-96-42.981-96-96-96z" fill="#f06423"/></g></g><path d="m276 88c4.418 0 8-3.582 8-8v-5.404c0-13.789-10.549-25.158-24-26.468v-8.128c0-4.418-3.582-8-8-8s-8 3.582-8 8v8.128c-13.451 1.31-24 12.679-24 26.468 0 11.466 7.309 21.606 18.186 25.231l22.568 7.523c4.334 1.445 7.246 5.485 7.246 10.053 0 5.843-4.754 10.596-10.597 10.596h-10.807c-5.843 0-10.596-4.753-10.596-10.596v-5.403c0-4.418-3.582-8-8-8s-8 3.582-8 8v5.404c0 13.789 10.549 25.158 24 26.468v8.128c0 4.418 3.582 8 8 8s8-3.582 8-8v-8.129c13.451-1.31 24-12.679 24-26.468 0-11.466-7.309-21.606-18.186-25.231l-22.569-7.523c-4.333-1.445-7.245-5.484-7.245-10.053 0-5.843 4.753-10.596 10.596-10.596h10.807c5.843 0 10.597 4.753 10.597 10.596v5.404c0 4.418 3.582 8 8 8z" fill="#f06423"/></g><g><g><path d="m260 400h-68.118c-12.73 0-24.939 5.057-33.941 14.059l-17.941 17.941 40 40 19.314-19.314c3.001-3.001 7.07-4.686 11.314-4.686h49.372c13.255 0 24-10.745 24-24 0-13.255-10.745-24-24-24z" fill="#fab991"/></g><g><path d="m375.314 388.686c-6.248-6.249-16.379-6.249-22.627 0l-59.314 59.314h-82.745c-4.243 0-8.313 1.686-11.314 4.686l-19.314 19.314 24 24 16-16h76.687c6.411 0 12.438-2.497 16.97-7.03l61.657-61.657c6.248-6.248 6.248-16.378 0-22.627z" fill="#f0915a"/></g><g><path d="m260 437.333h-5.333c-4.418 0-8-3.582-8-8v-10.667c0-4.418 3.582-8 8-8h5.333c7.364 0 13.333 5.97 13.333 13.333 0 7.365-5.969 13.334-13.333 13.334z" fill="#f0915a"/></g><g><path d="m137.657 429.657 42.343 42.343-40 40h-96l82.343-82.343c3.124-3.124 8.19-3.124 11.314 0z" fill="#5f78be"/></g><g><path d="m180 472 26.343 26.343c3.124 3.124 3.124 8.19 0 11.314l-2.343 2.343h-64z" fill="#46508c"/></g></g><g><g><path d="m332 344h-160c-8.837 0-16-7.163-16-16v-104c0-8.837 7.163-16 16-16h160c8.837 0 16 7.163 16 16v104c0 8.837-7.164 16-16 16z" fill="#5f78be"/></g><g><path d="m348 320h-192v-96c0-8.837 7.163-16 16-16h160c8.837 0 16 7.163 16 16z" fill="#46508c"/></g><g><path d="m236 344h32v24h-32z" fill="#46508c"/></g><g><path d="m284 384h-64c0-8.837 7.163-16 16-16h32c8.836 0 16 7.163 16 16z" fill="#5f78be"/></g></g><circle cx="252" cy="264" fill="#5f78be" r="40"/><path d="m252 220c-24.262 0-44 19.738-44 44s19.738 44 44 44 44-19.738 44-44-19.738-44-44-44zm35.772 40h-18.504c-.36-11.2-2.24-22.418-5.791-30.113 13.022 4.394 22.732 16.038 24.295 30.113zm-35.772 40c-2.55 0-8.568-11.182-9.265-32h18.53c-.698 20.818-6.715 32-9.265 32zm-9.265-40c.698-20.818 6.715-32 9.265-32s8.567 11.182 9.265 32zm-2.213-30.113c-3.551 7.695-5.431 18.913-5.791 30.113h-18.503c1.563-14.075 11.272-25.719 24.294-30.113zm-24.294 38.113h18.503c.36 11.2 2.24 22.418 5.791 30.113-13.022-4.394-22.731-16.038-24.294-30.113zm47.25 30.113c3.551-7.695 5.431-18.913 5.791-30.113h18.504c-1.564 14.075-11.274 25.719-24.295 30.113z" fill="#73cddc"/></g></svg>